<mxfile host="app.diagrams.net" agent="Mozilla/5.0 (Windows NT 10.0; Win64; x64) AppleWebKit/537.36 (KHTML, like Gecko) Chrome/135.0.0.0 Safari/537.36" version="26.1.1">
  <diagram name="Page-1" id="opfdp-dEq-lyO0Mdz7MI">
    <mxGraphModel dx="1434" dy="738" grid="1" gridSize="10" guides="1" tooltips="1" connect="1" arrows="1" fold="1" page="1" pageScale="1" pageWidth="827" pageHeight="1169" math="0" shadow="0">
      <root>
        <mxCell id="0" />
        <mxCell id="1" parent="0" />
        <mxCell id="h4ZPedd_NQfEWY4n9eUm-6" value="" style="edgeStyle=orthogonalEdgeStyle;rounded=0;orthogonalLoop=1;jettySize=auto;html=1;" edge="1" parent="1" source="h4ZPedd_NQfEWY4n9eUm-1" target="h4ZPedd_NQfEWY4n9eUm-5">
          <mxGeometry relative="1" as="geometry" />
        </mxCell>
        <mxCell id="h4ZPedd_NQfEWY4n9eUm-1" value="&lt;b&gt;&lt;font style=&quot;font-size: 22px;&quot;&gt;Network Topology Types&lt;/font&gt;&lt;/b&gt;" style="text;html=1;align=center;verticalAlign=middle;resizable=0;points=[];autosize=1;strokeColor=none;fillColor=none;" vertex="1" parent="1">
          <mxGeometry x="260" y="20" width="280" height="40" as="geometry" />
        </mxCell>
        <mxCell id="h4ZPedd_NQfEWY4n9eUm-2" value="&lt;font style=&quot;font-size: 18px;&quot;&gt;1. Point To Point&lt;/font&gt;" style="text;html=1;align=center;verticalAlign=middle;resizable=0;points=[];autosize=1;strokeColor=none;fillColor=none;" vertex="1" parent="1">
          <mxGeometry x="80" y="80" width="150" height="40" as="geometry" />
        </mxCell>
        <mxCell id="h4ZPedd_NQfEWY4n9eUm-5" value="&lt;span style=&quot;font-size: 18px;&quot;&gt;2. Bus&lt;/span&gt;" style="text;html=1;align=center;verticalAlign=middle;resizable=0;points=[];autosize=1;strokeColor=none;fillColor=none;" vertex="1" parent="1">
          <mxGeometry x="365" y="80" width="70" height="40" as="geometry" />
        </mxCell>
        <mxCell id="h4ZPedd_NQfEWY4n9eUm-7" value="&lt;span style=&quot;font-size: 18px;&quot;&gt;3. Ring&lt;/span&gt;" style="text;html=1;align=center;verticalAlign=middle;resizable=0;points=[];autosize=1;strokeColor=none;fillColor=none;" vertex="1" parent="1">
          <mxGeometry x="605" y="80" width="80" height="40" as="geometry" />
        </mxCell>
        <mxCell id="h4ZPedd_NQfEWY4n9eUm-8" value="" style="image;points=[];aspect=fixed;html=1;align=center;shadow=0;dashed=0;image=img/lib/allied_telesis/computer_and_terminals/Personal_Computer.svg;" vertex="1" parent="1">
          <mxGeometry x="40" y="140" width="45.6" height="61.800000000000004" as="geometry" />
        </mxCell>
        <mxCell id="h4ZPedd_NQfEWY4n9eUm-9" value="" style="image;points=[];aspect=fixed;html=1;align=center;shadow=0;dashed=0;image=img/lib/allied_telesis/computer_and_terminals/Personal_Computer.svg;" vertex="1" parent="1">
          <mxGeometry x="200" y="140" width="45.6" height="61.800000000000004" as="geometry" />
        </mxCell>
        <mxCell id="h4ZPedd_NQfEWY4n9eUm-10" value="" style="endArrow=none;html=1;rounded=0;" edge="1" parent="1" source="h4ZPedd_NQfEWY4n9eUm-8" target="h4ZPedd_NQfEWY4n9eUm-9">
          <mxGeometry width="50" height="50" relative="1" as="geometry">
            <mxPoint x="100" y="300" as="sourcePoint" />
            <mxPoint x="150" y="250" as="targetPoint" />
          </mxGeometry>
        </mxCell>
      </root>
    </mxGraphModel>
  </diagram>
</mxfile>
